<svg version="1.1" preserveAspectRatio="none" xmlns="http://www.w3.org/2000/svg" width="500" height="500" viewBox="0 0 500 500"><rect width="100%" height="100%" fill="#FFA569" fill-opacity="1"/><svg viewBox="658.9693 463.661 428.7253 185.3402" width="333" height="143.95764980513164" x="83.5px" y="178.0212px" xmlns="http://www.w3.org/2000/svg" xmlns:xlink="http://www.w3.org/1999/xlink" preserveAspectRatio="none"><defs></defs><style>.a0e3TXQnbxfillColor {fill:#DDDDDD;fill-opacity:0;}.aJqmuy15MzfillColor {fill:#DDDDDD;fill-opacity:0;}.companyName {fill:#FFFFFF;fill-opacity:1;}.icon1 {fill:#FFFFFF;fill-opacity:1;}.icon1-str {stroke:#FFFFFF;stroke-opacity:1;}.icon2 {fill:#D22626;fill-opacity:1;}.icon3 {fill:#393939;fill-opacity:1;}.icon3-str {stroke:#393939;stroke-opacity:1;}</style><g opacity="1" transform="rotate(0 695.5693 579.0012)">
<svg width="355.5253" height="70" x="695.5693" y="579.0012" version="1.1" preserveAspectRatio="none" viewBox="2.92 -34.92 229.16000000000003 45.12">
  <g transform="matrix(1 0 0 1 0 0)" class="companyName"><path id="id-D6z1nYkh10" d="M13.96-21.60Q15.56-21.60 17.66-21.14Q19.76-20.68 20.72-20.12L20.72-20.12L20.72-14.20L19.40-14.20Q17.80-16.20 15.76-17.34Q13.72-18.48 11.56-18.48L11.56-18.48Q7.72-18.48 7.72-11.80L7.72-11.80Q7.72-7.92 9.40-5.32Q11.08-2.72 14.24-2.72L14.24-2.72Q16.48-2.72 20.52-6.12L20.52-6.12L21.72-4.76L15.44 0.12Q13.96 0.40 11.92 0.40L11.92 0.40Q9.36 0.40 7.30-0.96Q5.24-2.32 4.08-4.68Q2.92-7.04 2.92-9.88L2.92-9.88Q2.92-12.96 4.62-15.68Q6.32-18.40 8.92-20Q11.52-21.60 13.96-21.60L13.96-21.60Z M37.40-1.36L36.68 0.04L25.84 0.04L25.84-1L29.40-3.76L29.40-28.92L25.84-31.44L25.84-32.48L32.48-34.92L33.80-34.92L33.80-2.84L37.40-1.36Z M52.80-1.40L52.08 0L41.24 0L41.24-1.04L44.80-3.80L44.80-15.96L41.24-18.48L41.24-19.52L47.88-21.96L49.20-21.96L49.20-2.84L52.80-1.40ZM46.80-33.92Q47.92-33.92 48.62-33.08Q49.32-32.24 49.32-31L49.32-31Q49.32-30.12 48.82-29.34Q48.32-28.56 47.54-28.10Q46.76-27.64 46.04-27.64L46.04-27.64Q44.96-27.64 44.24-28.50Q43.52-29.36 43.52-30.60L43.52-30.60Q43.52-31.48 44.02-32.24Q44.52-33 45.30-33.46Q46.08-33.92 46.80-33.92L46.80-33.92Z M68.28-21.60Q69.88-21.60 71.98-21.14Q74.08-20.68 75.04-20.12L75.04-20.12L75.04-14.20L73.72-14.20Q72.12-16.20 70.08-17.34Q68.04-18.48 65.88-18.48L65.88-18.48Q62.04-18.48 62.04-11.80L62.04-11.80Q62.04-7.92 63.72-5.32Q65.40-2.72 68.56-2.72L68.56-2.72Q70.80-2.72 74.84-6.12L74.84-6.12L76.04-4.76L69.76 0.12Q68.28 0.40 66.24 0.40L66.24 0.40Q63.68 0.40 61.62-0.96Q59.56-2.32 58.40-4.68Q57.24-7.04 57.24-9.88L57.24-9.88Q57.24-12.96 58.94-15.68Q60.64-18.40 63.24-20Q65.84-21.60 68.28-21.60L68.28-21.60Z M88.12-2.80L91.72-1.36L91 0.04L80.16 0.04L80.16-1L83.72-3.76L83.72-28.92L80.16-31.44L80.16-32.48L86.80-34.92L88.12-34.92L88.12-2.80ZM105.20-1.40L104.52 0L98.04 0L90.32-10.52L97.88-16.96L94.28-19.80L94.96-21.20L104.12-21.20L104.12-20.16L94.64-12.12L101.72-2.72L105.20-1.40Z M126.80-7.28L126.80 0.72L124.80 0L107.60 0L107.60-1.04Q112.72-5.32 115.38-7.88Q118.04-10.44 119.08-12.06Q120.12-13.68 120.12-15.08L120.12-15.08Q120.12-17.28 118.62-18.68Q117.12-20.08 114.72-20.08L114.72-20.08Q112.28-20.08 108.88-16.96L108.88-16.96L107.68-18.32L113.48-22.92Q114.40-23.20 115.84-23.20L115.84-23.20Q118.52-23.20 120.56-22.46Q122.60-21.72 123.72-20.40Q124.84-19.08 124.84-17.36L124.84-17.36Q124.84-13.40 114.36-4.44L114.36-4.44L124.56-4.44L125.80-7.64L126.80-7.28Z M144.40-4.16Q144.40-5.36 143.14-6.30Q141.88-7.24 139.20-8.64L139.20-8.64Q136.08-10.20 134.44-11.52Q132.80-12.84 132.80-14.64L132.80-14.64Q132.80-16.08 133.98-17.72Q135.16-19.36 136.86-20.48Q138.56-21.60 140.04-21.60L140.04-21.60Q141.80-21.60 144.16-21.14Q146.52-20.68 147.60-20.12L147.60-20.12L147.60-14.04L146.28-14.04Q144.92-16.60 143.22-18.04Q141.52-19.48 139.72-19.48L139.72-19.48Q138.36-19.48 137.56-18.76Q136.76-18.04 136.76-17L136.76-17Q136.76-15.68 138.06-14.70Q139.36-13.72 142.12-12.32L142.12-12.32Q144.16-11.28 145.40-10.54Q146.64-9.80 147.50-8.80Q148.36-7.80 148.36-6.56L148.36-6.56Q148.36-5.08 147.12-3.46Q145.88-1.84 144.12-0.72Q142.36 0.40 140.88 0.40L140.88 0.40Q138.96 0.40 136.32-0.08Q133.68-0.56 132.56-1.08L132.56-1.08L132.56-7.08L133.88-7.08Q135.28-4.52 137.26-3.12Q139.24-1.72 141.24-1.72L141.24-1.72Q142.64-1.72 143.52-2.44Q144.40-3.16 144.40-4.16L144.40-4.16Z M178-1.36L177.28 0.04L170 0.04L170-13.60Q170-15.88 169.28-16.76Q168.56-17.64 166.76-17.64L166.76-17.64Q165.36-17.64 164.02-17.14Q162.68-16.64 160.80-15.12L160.80-15.12L160.80-2.80L164.40-1.36L163.68 0.04L152.84 0.04L152.84-1L156.40-3.76L156.40-28.92L152.84-31.44L152.84-32.48L159.48-34.92L160.80-34.92L160.80-16.80L166.48-21.28Q167.32-21.60 168.60-21.60L168.60-21.60Q171.28-21.60 172.84-19.94Q174.40-18.28 174.40-15.44L174.40-15.44L174.40-2.84L178-1.36Z M193.88-21.60Q196.48-21.60 198.52-20.22Q200.56-18.84 201.72-16.48Q202.88-14.12 202.88-11.28L202.88-11.28Q202.88-8.20 201.04-5.50Q199.20-2.80 196.42-1.20Q193.64 0.40 191.04 0.40L191.04 0.40Q188.48 0.40 186.42-0.96Q184.36-2.32 183.20-4.68Q182.04-7.04 182.04-9.88L182.04-9.88Q182.04-12.96 183.88-15.68Q185.72-18.40 188.50-20Q191.28-21.60 193.88-21.60L193.88-21.60ZM191.56-18.48Q186.80-18.48 186.80-11.80L186.80-11.80Q186.80-7.92 188.48-5.32Q190.16-2.72 193.36-2.72L193.36-2.72Q198.08-2.72 198.08-9.40L198.08-9.40Q198.08-13.28 196.40-15.88Q194.72-18.48 191.56-18.48L191.56-18.48Z M220.24 0.44Q217.88 0.44 216.04-0.92L216.04-0.92L216.04 7.08L221.52 8.80L220.84 10.20L208.08 10.20L208.08 9.16L211.64 6.40L211.64-15.52L208.08-17.56L208.08-18.60L214.60-21.96L215.88-16.64L221.76-21.28Q223.04-21.60 224.68-21.60L224.68-21.60Q226.76-21.60 228.46-20.22Q230.16-18.84 231.12-16.48Q232.08-14.12 232.08-11.28L232.08-11.28Q232.08-8.20 230.24-5.50Q228.40-2.80 225.62-1.20Q222.84 0.40 220.24 0.40L220.24 0.40L220.24 0.44ZM222.68-18.04Q221.12-18.04 219.66-17.42Q218.20-16.80 216.04-14.80L216.04-14.80L216.04-8Q216.04-5.72 217.72-4.20Q219.40-2.68 222.56-2.68L222.56-2.68Q224.92-2.68 226.10-4.36Q227.28-6.04 227.28-9.32L227.28-9.32Q227.28-13 226.08-15.54Q224.88-18.08 222.72-18.08L222.72-18.08L222.68-18.04Z"/></g>
</svg>
</g><g opacity="1" transform="rotate(0 785.832 463.661)">
<svg width="175" height="85.3402" x="785.832" y="463.661" version="1.1" preserveAspectRatio="none" viewBox="710.5001831054688 15717 58580 28567">
  <g transform="matrix(1 0 0 1 0 0)" class="icon1"><defs></defs><g><path class="fil0" d="M29559 29986c40,43 81,88 123,133 98,106 208,226 307,335l106 -115c110,-119 222,-239 326,-349 -96,-98 -199,-206 -297,-308 -46,-48 -92,-96 -135,-142 -39,42 -81,85 -123,129 -100,104 -208,216 -307,318zm-464 673c-155,-168 -299,-322 -373,-398 -152,-155 -153,-404 0,-559 115,-118 355,-363 569,-587 61,-63 118,-124 169,-177 -398,-533 -767,-1032 -1103,-1503 -634,534 -1302,1028 -1965,1519 -297,220 -593,439 -884,660 291,221 587,440 884,660 784,580 1576,1166 2308,1815 240,-329 494,-672 762,-1030 -101,-111 -232,-253 -367,-399zm1428 394c291,336 572,675 842,1017 744,-670 1543,-1268 2330,-1858 267,-200 532,-399 793,-599 -261,-200 -526,-399 -793,-599 -663,-497 -1334,-1000 -1975,-1547 -376,497 -776,990 -1197,1476 53,56 113,119 176,184 209,218 438,453 562,579 152,155 153,404 0,559 -140,142 -359,375 -578,613 -54,59 -108,117 -160,174zm1330 1653l72 97c525,713 1001,1431 1417,2143 670,1147 1339,2421 1582,3722 252,1353 44,2707 -1084,3933 -104,114 -212,221 -323,323 -987,907 -2218,1360 -3450,1360 -1232,0 -2464,-453 -3450,-1360 -111,-102 -219,-210 -323,-323 -1128,-1227 -1336,-2581 -1084,-3933 243,-1300 911,-2575 1582,-3722 364,-623 773,-1249 1228,-1904 69,-99 140,-200 212,-302 -727,-652 -1524,-1242 -2314,-1826 -356,-264 -711,-526 -1058,-793 -626,505 -1209,1031 -1702,1612 -31,37 -63,75 -93,112 242,337 466,675 668,1009 204,337 393,681 564,1028 312,632 622,1336 736,2060 121,770 19,1543 -528,2249 -151,195 -319,362 -497,500 -426,330 -915,496 -1407,496l0 2c-490,0 -979,-166 -1407,-497 -178,-138 -346,-305 -497,-500 -547,-706 -649,-1479 -528,-2249 114,-724 425,-1428 736,-2060 218,-442 453,-901 719,-1348 139,-234 286,-465 443,-690 -337,-433 -698,-849 -1076,-1236 -158,-162 -319,-319 -482,-470 -185,155 -374,305 -565,448 -1761,1319 -4455,2314 -6979,2354 -1977,31 -3858,-517 -5143,-1936 -211,148 -417,301 -619,451 -1195,885 -2288,1695 -3915,1385 -794,-151 -1398,-463 -1822,-873 -436,-423 -679,-946 -740,-1509 -60,-548 55,-1128 331,-1682 355,-711 979,-1384 1846,-1888 8679,-5050 15783,732 16912,1650 60,49 101,83 112,90 195,140 388,290 580,448 252,-235 498,-480 735,-735 289,-310 564,-632 822,-961 -156,-224 -302,-454 -440,-686 -265,-448 -501,-907 -719,-1348 -312,-632 -622,-1336 -736,-2060 -121,-770 -19,-1543 528,-2249 151,-195 319,-362 497,-500 428,-331 916,-497 1407,-497l0 2c492,0 980,165 1407,496 178,138 346,305 497,500 547,706 649,1479 528,2249 -114,724 -425,1428 -736,2060 -119,241 -252,490 -399,745 -143,248 -295,496 -457,741 -121,184 -247,367 -378,548 31,39 63,77 95,115 493,580 1076,1107 1702,1612 347,-267 702,-529 1058,-793 670,-496 1346,-996 1979,-1534 -406,-591 -774,-1160 -1106,-1727 -670,-1147 -1339,-2421 -1582,-3722 -252,-1353 -44,-2707 1084,-3933 104,-114 212,-221 323,-323 987,-907 2218,-1360 3450,-1360 1232,0 2464,453 3450,1360 111,102 219,210 323,323 1128,1227 1336,2581 1084,3933 -243,1300 -912,2575 -1582,3722 -344,588 -728,1181 -1148,1771 638,549 1313,1055 1979,1554 324,243 646,484 962,728 625,-506 1206,-1032 1698,-1611 34,-40 68,-81 101,-121 -129,-179 -254,-360 -373,-541 -164,-250 -315,-494 -453,-731 -145,-250 -280,-501 -406,-752l-2 -3c-314,-632 -627,-1336 -741,-2059 -122,-770 -20,-1544 527,-2250 151,-195 319,-362 497,-500 428,-331 916,-497 1407,-497l0 2c492,0 980,165 1407,496 178,138 346,305 497,500 547,706 649,1479 528,2249 -114,724 -425,1428 -736,2060 -218,442 -453,901 -719,1348 -136,230 -281,457 -435,679 260,332 537,656 828,968 237,254 482,500 735,735 191,-158 385,-308 580,-448 11,-8 53,-42 112,-90 1129,-919 8233,-6701 16912,-1650 867,504 1492,1178 1846,1888 276,554 391,1134 331,1682 -61,563 -304,1086 -740,1509 -424,411 -1028,722 -1822,873 -1627,310 -2720,-500 -3915,-1385 -202,-150 -408,-302 -619,-451 -1285,1419 -3167,1967 -5143,1936 -2524,-40 -5219,-1034 -6979,-2354 -191,-143 -380,-293 -565,-448 -163,151 -323,308 -482,470 -379,389 -742,807 -1081,1243 155,223 301,452 438,683 265,448 501,907 719,1348 312,632 622,1336 736,2060 121,770 19,1543 -528,2249 -151,195 -319,362 -497,500 -426,330 -915,496 -1407,496l0 2c-490,0 -979,-166 -1407,-497 -178,-138 -346,-305 -497,-500 -547,-706 -649,-1480 -527,-2250 114,-723 427,-1426 741,-2059l1 0 1 -2c172,-344 364,-689 572,-1032 206,-339 426,-672 659,-996 -33,-40 -65,-80 -99,-119 -492,-579 -1073,-1105 -1698,-1611 -315,244 -638,486 -962,728 -787,589 -1586,1188 -2321,1856zm-572 569l-9 -12c-215,219 -422,447 -618,684 -40,48 -81,99 -123,152 203,282 395,570 576,860 241,387 461,781 655,1176 312,632 622,1336 736,2060 121,770 19,1543 -528,2249 -151,195 -319,362 -497,500 -426,330 -915,496 -1407,496l0 2c-490,0 -979,-166 -1407,-497 -178,-138 -346,-305 -497,-500 -547,-706 -649,-1479 -528,-2249 114,-724 425,-1428 736,-2060 166,-337 355,-680 567,-1041 188,-320 387,-644 602,-986 -22,-27 -59,-72 -110,-134 -194,-235 -399,-460 -614,-677 -47,67 -94,134 -141,201 -442,636 -839,1244 -1194,1851 -636,1088 -1269,2289 -1488,3462 -209,1122 -39,2241 887,3249 89,97 182,189 276,277 832,765 1871,1148 2910,1148 1039,0 2077,-383 2910,-1148 95,-87 187,-179 276,-277 926,-1008 1096,-2127 887,-3249 -219,-1174 -852,-2374 -1488,-3462 -406,-695 -866,-1390 -1371,-2074zm-497 -653c-252,-321 -514,-640 -783,-953 -246,330 -484,652 -714,969 260,257 509,526 744,809l7 -9c237,-286 486,-557 745,-816zm-1824 -5718c331,466 677,937 1042,1426 392,-457 767,-923 1122,-1395 -384,-360 -752,-742 -1092,-1154 -332,400 -692,771 -1072,1123zm-1478 -2255c306,524 644,1050 1016,1593 374,-353 725,-724 1042,-1123 -215,-342 -414,-665 -601,-985 -212,-361 -400,-704 -567,-1041 -312,-632 -622,-1336 -736,-2060 -121,-770 -19,-1543 528,-2249 151,-195 319,-362 497,-500 428,-331 916,-497 1407,-497l0 2c492,0 980,165 1407,496 178,138 346,305 497,500 547,706 649,1479 528,2249 -114,724 -425,1428 -736,2060 -194,394 -414,789 -655,1176 -180,290 -373,578 -576,861 328,412 687,794 1067,1156 381,-541 734,-1088 1054,-1635 636,-1088 1269,-2289 1488,-3462 209,-1122 39,-2241 -887,-3249 -89,-97 -182,-189 -276,-277 -832,-765 -1871,-1148 -2910,-1148 -1039,0 -2077,383 -2910,1148 -95,87 -187,179 -276,277 -926,1008 -1096,2127 -887,3249 219,1174 852,2374 1488,3462zm16113 6839c-6,8 -12,15 -18,23 1113,379 2311,613 3470,631 1715,27 3339,-422 4452,-1580 -206,-121 -418,-234 -640,-333 -1480,-662 -2937,-919 -4228,-688 -1181,212 -2231,839 -3037,1948zm-723 -241c1,-79 26,-159 76,-228 935,-1287 2161,-2016 3543,-2263 1454,-261 3071,18 4694,744 370,166 710,360 1032,567 52,13 103,37 148,73 28,22 52,46 72,73 289,196 565,400 835,600 1048,776 2007,1487 3293,1242 630,-120 1097,-355 1413,-661 296,-287 461,-641 502,-1021 43,-395 -45,-823 -253,-1241 -289,-579 -806,-1132 -1531,-1554 -8204,-4774 -14939,708 -16009,1579 -67,54 -113,92 -150,119 -146,105 -292,216 -437,333 143,117 287,231 433,340 660,495 1462,941 2338,1299zm-4435 -1196c149,-153 301,-302 454,-446 -247,-232 -486,-473 -717,-721 -258,-278 -507,-565 -744,-860 -491,576 -1054,1094 -1656,1589 600,494 1163,1011 1653,1585 320,-402 659,-787 1011,-1147zm-1011 2483c-167,241 -324,483 -472,726 -196,323 -377,649 -540,974l1 0c-287,578 -571,1214 -669,1831 -90,569 -19,1134 371,1638 109,141 228,260 353,357 282,219 602,328 919,328l0 2c316,0 635,-110 919,-330 125,-97 244,-216 353,-357 390,-504 461,-1070 371,-1639 -97,-615 -380,-1251 -665,-1829 -208,-423 -435,-863 -691,-1295 -81,-137 -165,-272 -252,-405zm-7800 -8804c129,221 270,452 422,697 132,-192 259,-386 381,-581 229,-369 436,-740 617,-1107 285,-578 568,-1214 665,-1829 90,-570 19,-1136 -371,-1639 -109,-141 -228,-260 -353,-357 -284,-220 -603,-330 -919,-330l0 2c-317,0 -637,109 -919,328 -125,97 -244,216 -353,357 -390,504 -461,1070 -371,1639 97,615 380,1251 665,1829 162,328 341,654 539,991zm-7057 7462c489,-573 1051,-1088 1649,-1579 -600,-492 -1162,-1008 -1653,-1583 -236,293 -482,578 -739,854 -231,248 -471,489 -717,721 154,144 305,293 454,446 349,358 687,741 1006,1141zm0 1334c-89,136 -174,274 -257,413 -256,432 -482,872 -691,1295 -285,578 -568,1214 -665,1829 -90,570 -19,1136 371,1639 109,141 228,260 353,357 282,219 602,328 919,328l0 2c316,0 635,-110 919,-330 125,-97 244,-216 353,-357 390,-504 461,-1070 371,-1639 -97,-615 -380,-1251 -665,-1829 -157,-319 -336,-643 -532,-968 -153,-253 -313,-500 -479,-740zm-2670 -2918c-145,-117 -291,-228 -437,-333 -37,-26 -83,-64 -150,-119 -1070,-871 -7805,-6353 -16009,-1579 -724,421 -1242,975 -1531,1554 -209,418 -296,846 -253,1241 41,380 206,734 502,1021 316,306 782,541 1413,661 1286,245 2245,-465 3293,-1242 270,-200 546,-404 835,-600 20,-27 45,-52 72,-73 45,-35 96,-59 148,-73 322,-207 662,-401 1032,-567 1623,-726 3240,-1005 4694,-744 1382,248 2608,977 3543,2263 50,69 75,148 76,228 876,-359 1678,-804 2338,-1299 146,-109 290,-223 433,-340zm-10758 620c-221,99 -434,212 -640,333 1113,1159 2737,1607 4452,1580 1160,-18 2357,-252 3470,-631 -6,-7 -12,-15 -18,-23 -806,-1109 -1856,-1736 -3037,-1948 -1291,-231 -2748,26 -4228,688zm28085 -3835c65,99 133,199 201,297 87,-133 170,-268 251,-404 256,-432 482,-872 691,-1295 285,-578 568,-1214 665,-1829 90,-570 19,-1136 -371,-1639 -109,-141 -228,-260 -353,-357 -284,-220 -603,-330 -919,-330l0 2c-317,0 -637,109 -919,328 -125,97 -244,216 -353,357 -390,504 -461,1069 -371,1638 97,616 381,1251 668,1828 119,236 247,473 384,710 139,240 282,472 428,694zm-7178 8406c-152,244 -293,476 -422,696 -198,338 -377,663 -539,991 -285,578 -568,1214 -665,1829 -90,570 -19,1136 371,1639 109,141 228,260 353,357 282,219 602,328 919,328l0 2c316,0 635,-110 919,-330 125,-97 244,-216 353,-357 390,-504 461,-1070 371,-1639 -97,-615 -380,-1251 -665,-1829 -181,-367 -388,-738 -617,-1107 -121,-195 -248,-389 -381,-581zm-7736 -8513c82,139 167,276 256,411 71,-101 139,-203 207,-305 153,-232 297,-466 432,-700 131,-227 255,-461 374,-701 285,-578 568,-1214 665,-1829 90,-570 19,-1136 -371,-1639 -109,-141 -228,-260 -353,-357 -284,-220 -603,-330 -919,-330l0 2c-317,0 -637,109 -919,328 -125,97 -244,216 -353,357 -390,504 -461,1070 -371,1639 97,615 380,1251 665,1829 208,423 435,863 691,1295z"></path></g></g>
</svg>
</g><g opacity="1" transform="rotate(0 658.9693 607.7012)">
<svg width="12.6" height="12.6" x="658.9693" y="607.7012" version="1.1" preserveAspectRatio="none" viewBox="0 0 12.6 12.6">
  <defs><rect x="1.386" y="1.386" width="9.828" height="9.828" rx="50%" ry="50%" id="id-Jqmuy15Mz1691550671324"></rect></defs><use class="aJqmuy15MzfillColor icon1-str" style="stroke-width:2.772;" xlink:href="#id-Jqmuy15Mz1691550671324"></use>
</svg>
</g><g opacity="1" transform="rotate(0 1075.0946 607.7012)">
<svg width="12.6" height="12.6" x="1075.0946" y="607.7012" version="1.1" preserveAspectRatio="none" viewBox="0 0 12.6 12.6">
  <defs><rect x="1.386" y="1.386" width="9.828" height="9.828" rx="50%" ry="50%" id="id-0e3TXQnbx1691550671324"></rect></defs><use class="a0e3TXQnbxfillColor icon1-str" style="stroke-width:2.772;" xlink:href="#id-0e3TXQnbx1691550671324"></use>
</svg>
</g></svg></svg>